<?xml version="1.0" encoding="utf-8"?>
<!-- Generator: Adobe Illustrator 19.2.0, SVG Export Plug-In . SVG Version: 6.00 Build 0)  -->
<svg version="1.1" id="Calque_1" xmlns="http://www.w3.org/2000/svg" xmlns:xlink="http://www.w3.org/1999/xlink" x="0px" y="0px"
	 viewBox="0 0 84 27.2" style="enable-background:new 0 0 84 27.2;" xml:space="preserve">
<style type="text/css">
	.st0{opacity:0.69;}
	.st1{opacity:0.37;}
	.st2{opacity:0.47;}
	.st3{fill:#482D7C;}
	.st4{fill:#472D7C;}
</style>
<g id="FOND">
</g>
<g id="Layer_1">
	<g id="New_Symbol_4" class="st0">
	</g>
	<g id="New_Symbol_3_1_" class="st1">
	</g>
	<g id="New_Symbol_3" class="st1">
	</g>
	<g id="New_Symbol_1_6_">
	</g>
	<g id="New_Symbol_1_5_" class="st2">
	</g>
	<g id="New_Symbol_1_4_">
	</g>
	<g id="New_Symbol_1_3_">
	</g>
	<g id="New_Symbol_1_2_">
	</g>
	<g id="New_Symbol_1_1_">
	</g>
	<g id="New_Symbol_1">
	</g>
	<g id="New_Symbol">
		<g id="New_Symbol_11">
		</g>
		<g id="New_Symbol_16">
		</g>
		<g id="New_Symbol_17">
		</g>
		<g id="New_Symbol_15">
		</g>
		<g id="New_Symbol_12">
		</g>
		<g id="New_Symbol_14">
		</g>
		<g id="New_Symbol_13">
		</g>
		<g id="New_Symbol_10">
		</g>
		<g id="New_Symbol_7">
		</g>
		<g id="New_Symbol_4_1_">
		</g>
		<g id="New_Symbol_5">
		</g>
		<g id="New_Symbol_8">
		</g>
		<g id="New_Symbol_1_7_">
		</g>
		<g id="New_Symbol_2">
		</g>
		<g id="New_Symbol_6">
		</g>
		<g id="New_Symbol_4_2_">
		</g>
		<g id="New_Symbol_5_1_">
		</g>
		<g id="New_Symbol_8_1_">
		</g>
		<g id="New_Symbol_1_8_">
		</g>
		<g id="New_Symbol_7_1_">
		</g>
		<g id="New_Symbol_2_1_">
		</g>
		<g id="New_Symbol_6_1_">
		</g>
		<g id="New_Symbol_11_1_">
		</g>
		<g id="New_Symbol_16_1_">
		</g>
		<g id="New_Symbol_17_1_">
		</g>
		<g id="New_Symbol_15_1_">
		</g>
		<g id="New_Symbol_12_1_">
		</g>
		<g id="New_Symbol_14_1_">
		</g>
		<g id="New_Symbol_13_1_">
		</g>
		<g id="New_Symbol_10_1_">
			<g id="New_Symbol_4_3_">
			</g>
			<g id="New_Symbol_5_2_">
			</g>
			<g id="New_Symbol_1_9_">
			</g>
			<g id="New_Symbol_2_2_">
			</g>
			<g id="New_Symbol_16_2_">
			</g>
			<g id="New_Symbol_17_2_">
			</g>
			<g id="New_Symbol_15_2_">
			</g>
			<g id="New_Symbol_12_2_">
			</g>
			<g id="New_Symbol_14_2_">
			</g>
			<g id="New_Symbol_10_2_">
			</g>
			<g id="New_Symbol_8_2_">
			</g>
		</g>
	</g>
	<g id="New_Symbol_4_4_">
	</g>
	<g>
		<path class="st3" d="M41.9,7.7L41.9,7.7l0.6-0.8l1.1-1.9l0.5-0.2l-0.3-0.6l1.8-2.9l1.6,0.3l1,0.3L48,6.9l-0.6,0.8l0.3,0.5L48,18.8
			l-0.2,2.1l0.2,1.8v1.1l0.2,2.1L45.4,26l-0.8-0.5L44.5,24l0.2-2.2v-3.5l0.3-0.6l-0.3-0.3l-0.2-1.6l0.2-7.2l-0.2-1.3l-0.3,0.5
			l-0.2,1v0.3l-0.5,0.8L43.1,11l-1.1,0.2h-1l-0.8-1.6L40,9.2l-0.2-0.5l-0.6-1.4v2.2l0,0l0,0v4.6l-0.2,0.6l0.2,4.6v4.8v1.4h-3l-0.3-1
			l0.5-1.3l-0.3-0.8V22v-0.8l0.2-9.1l0.5-0.6l-0.5-0.3v-3l-0.2-1.6l-0.2-1.6l0.3-0.5V4.3l-0.2-0.5V3.5V1.6l1.4-0.2l1.3-0.2l1.4,3
			L41.9,7.7z"/>
		<path class="st3" d="M59.3,18.8h-0.5l0,0l-0.6,0.5L56,19.9l-0.3,0.2L55,20.4l-0.3,2.4l-0.3,0.3l0.2,1l-0.3,2.2L52.1,26L51,25.2
			l1-4l0.3-2.1l0.3-0.3v-0.6l0.6-4.1l0.2-0.6l0.2-0.6v-0.6l1-4.5L55.2,7l-0.3-0.5L55,5.3l0.3-1.4l0.3-2.1l2.7-0.2L59,1.9V3l0.2,0.3
			l0.2,0.3l1.1,5.1l-0.2,0.6l0.3,0.3l1.6,8v0.5l0.8,3l0.3,2.1l-0.2,0.3l0.5,0.5l0.3,1.4l-2.4,0.8H61L60.4,26l-0.5-4.1l-0.2-1
			l0.3-0.3l-0.3-0.2l-0.3-1.1L59.3,18.8z M56,14.8L56,14.8l-0.3,2.1V17l2.1-0.6l1-0.2L58,12.7L57.9,11l-0.2-0.6l-0.5-3.5l-0.6,4
			L56.3,11l0.2,0.5L56,14.8z"/>
		<path class="st3" d="M68.7,1.4L70,1.9L69.6,10v1.6v1l0.2-0.3l0.5-1.3l0.6-1l1.3-3.2l0.6-1.4l1-1l-0.2-0.8l0.8-2.2l2.1,0.8l1,0.8
			l-1,1.8l-2.1,3.3v0.2l0.2,0.2l-2.4,4.5l0.2,0.3l1.9,4.5l1.1,2.5l1.1,1.9l-0.2,0.5l0.5,0.2l1,2.1l-2.4,1.3h-0.8l-1-2.4l-1.8-4
			l0.2-0.5l-1.1-1.8l0,0l-1.3-2.9v5.4l0.2,1.6v1.6v0.3l0.2,0.6V26h-1.8h-1.8v-3.5h0.2v-0.2l0.6-1.3l-0.3-0.5v-0.5v-0.2l0.2-7.2
			L66.8,11l-0.3-4.3V4l-0.3-2.4L68.7,1.4z"/>
		<path class="st3" d="M80.6,10.7l-0.2-6.5l0.3-0.6l-0.3-0.2l-0.2-1.6l1.6-0.2L84,1.8l-0.2,2.4l-0.2,0.8l-0.2,4.3L83.3,11l0.2,1.3
			v0.8l-0.3,0.6l0.3,0.2v9.2v0.5v0.6v1.3L82.4,26h-0.6h-1.6l0.5-2.9l0.3-0.6l-0.3-0.6v-1.1v-6.2l0.2-1l0.2-1.8L80.6,10.7z"/>
	</g>
</g>
<g id="Calque_56">
</g>
<path class="st4" d="M25.1,27.2c-0.1-1.1-0.2-2.2-0.2-3.4c-0.2,0-0.5,0-0.7,0c-0.1,0.9-0.3,1.9-0.5,3c-0.5-0.9-0.6-2-2-1.9
	c-1.3,0.1-1.8,0.5-1.7,1.9c-0.3-0.2-0.4-0.2-0.4-0.2c-0.4-3-0.4-3-3.5-3c-1,0-2-0.1-3,0c-0.9,0.1-1.8,0.3-2.9,0.5
	c-0.5-0.4-3.7-0.9-4.5-0.4c-0.3,0.2-0.4,0.6-0.5,1c-0.1,0.6,0,1.3-0.3,1.9c-0.3-1.1-0.5-2.3-0.8-3.2c0-1,0.1-1.9,0-2.8
	c-0.3-2.8-0.7-5.7-0.9-8.5c-0.1-1.4-0.7-1.9-2.1-1.8C1,10.5,0.6,10.3,0,9.9C2.3,8,4.5,6.2,6.8,4.4C7,4.6,7.1,4.7,7.3,4.9
	C6.7,5.4,6.2,6,5.6,6.4C4.9,7,4,7.5,3.3,8.2C3,8.4,3.1,8.9,3,9.2c0.3,0.1,0.8,0.3,1,0.2c2.6-2.1,5.1-4.2,7.7-6.3
	c-0.1-0.2-0.2-0.3-0.3-0.5c-1,0.5-2.1,1.1-3.1,1.6C8.1,4.1,8.1,4,8,3.9c0.6-0.5,1.2-1.2,1.9-1.6c1.2-0.8,2.5-1.5,3.9-2.1
	c0.7-0.3,1.8-0.4,2.4-0.1c2.7,1.3,5.5,2.7,8,4.3c2,1.3,3.7,2.9,5.4,4.5c0.8,0.7,0.3,1.4-0.5,1.4c-1.8,0-2,1-2.1,2.5
	c-0.1,2.6-0.5,5.1-0.7,7.6c-0.1,0.8,0.1,1.5,0.2,2.3c0,0.2,0.2,0.5,0.1,0.5c-1.4,1-1,2.5-1.1,3.9C25.3,27.2,25.2,27.2,25.1,27.2z
	 M24.5,21.5c0.1,0,0.2,0,0.2,0c0.1-0.5,0.3-0.9,0.3-1.4c0.1-2.6,0.2-5.2,0.4-7.8c0.1-1.2-0.4-1.6-1.5-1.6c-3.9,0-7.9,0.1-11.8,0
	c-1.2,0-1.6,0.6-1.6,1.6c0.2,3,0.5,6,0.7,9c0.1,0.9,0.5,1.3,1.4,1.3c1.4-0.1,2.8-0.1,4.1-0.2c1.9-0.2,2-0.2,1.6-2.1
	c-0.4-1.8-0.9-3.7,0-5.5c0.4-0.8,1.1-1.6,1.9-1.9c1.1-0.4,2.3-0.2,2.9,1c0.4,0.8,0.9,1.7,1,2.6C24.4,18.1,24.4,19.8,24.5,21.5z
	 M7,10.8c-2.2,0-2.2,0-2.2,2.1c0.1,1.9,0.1,3.8,0.3,5.8c0.1,1.1,0.1,2.3,0.7,3.1c0.3,0.5,1.6,0.3,2.5,0.4c0.1,0,0.2,0,0.3,0.1
	C9.7,22.5,10,22,9.9,21c-0.4-2.8-0.8-5.7-1.1-8.5C8.6,11.2,8.1,10.6,7,10.8z M20,23.9c0.9,1.2,2.4,1.2,3.2,0
	C22.1,23.9,21.1,23.9,20,23.9z"/>
</svg>
